<svg id="Layer_1" data-name="Layer 1" xmlns="http://www.w3.org/2000/svg" viewBox="0 0 374.36 1485.48"><defs><style>.cls-1{font-size:40px;fill:#fff;font-family:Miracle;}.cls-2,.cls-3{fill:none;stroke-miterlimit:10;}.cls-2{stroke:#fff;}.cls-3{stroke:#000;}</style></defs><text class="cls-1" transform="translate(184.23 33.58) rotate(3.13)">S</text><text class="cls-1" transform="translate(209.91 34.94) rotate(13.94)">C</text><text class="cls-1" transform="translate(241 43.23) rotate(24.85)">R</text><text class="cls-1" transform="translate(263.9 53.61) rotate(35.79)">O</text><text class="cls-1" transform="matrix(0.69, 0.72, -0.72, 0.69, 291.23, 74.37)">L</text><text class="cls-1" transform="matrix(0.59, 0.81, -0.81, 0.59, 305.79, 89.79)">L</text><text class="cls-1" transform="translate(318.01 107.3) rotate(60.26)"> </text><text class="cls-1" transform="translate(324.51 117.75) rotate(68.45)">D</text><text class="cls-1" transform="matrix(0.16, 0.99, -0.99, 0.16, 335.89, 146.98)">O</text><text class="cls-1" transform="translate(341.31 179.05) rotate(93.97)">W</text><text class="cls-1" transform="matrix(-0.29, 0.96, -0.96, -0.29, 337.38, 220.02)">N</text><text class="cls-1" transform="translate(328.41 246.89) rotate(115.05)">·</text><text class="cls-1" transform="translate(322.51 259.94) rotate(122.6)">S</text><text class="cls-1" transform="matrix(-0.69, 0.73, -0.73, -0.69, 308.67, 281.64)">C</text><text class="cls-1" transform="translate(286.17 304.66) rotate(144.15)">R</text><text class="cls-1" transform="translate(265.92 319.55) rotate(155.09)">O</text><text class="cls-1" transform="translate(234.46 333.21) rotate(165.48)">L</text><text class="cls-1" transform="translate(213.89 338.31) rotate(173.43)">L</text><text class="cls-1" transform="translate(192.65 340.29) rotate(179.07)"> </text><text class="cls-1" transform="translate(180.29 340.86) rotate(-172.23)">D</text><text class="cls-1" transform="translate(149.25 336.47) rotate(-159.87)">O</text><text class="cls-1" transform="translate(118.61 325.5) rotate(-146.54)">W</text><text class="cls-1" transform="translate(84.9 301.92) rotate(-133.58)">N</text><text class="cls-1" transform="translate(65.88 280.92) rotate(-125.65)">·</text><text class="cls-1" transform="translate(57.38 269.38) rotate(-118.12)">S</text><text class="cls-1" transform="translate(45.21 246.7) rotate(-107.24)">C</text><text class="cls-1" transform="translate(36.21 215.8) rotate(-96.35)">R</text><text class="cls-1" transform="translate(33.23 190.82) rotate(-85.55)">O</text><text class="cls-1" transform="translate(36.74 156.73) rotate(-75.21)">L</text><text class="cls-1" transform="translate(42.36 136.27) rotate(-67.23)">L</text><text class="cls-1" transform="translate(51.02 116.75) rotate(-60.88)"> </text><text class="cls-1" transform="matrix(0.61, -0.8, 0.8, 0.61, 56.61, 105.77)">D</text><text class="cls-1" transform="translate(75.73 80.9) rotate(-40.52)">O</text><text class="cls-1" transform="matrix(0.89, -0.46, 0.46, 0.89, 100.29, 59.58)">W</text><text class="cls-1" transform="translate(137.33 41.72) rotate(-14.16)">N</text><text class="cls-1" transform="translate(164.98 35.47) rotate(-6.16)">·</text><circle class="cls-2" cx="165.63" cy="187.17" r="41.01"/><circle class="cls-2" cx="208.73" cy="187.17" r="41.01"/><path class="cls-2" d="M375.66,1354.08A175.67,175.67,0,0,0,200,1529.74,175.67,175.67,0,0,0,24.34,1354.08" transform="translate(-12.82 -44.26)"/><path class="cls-3" d="M620-142.84" transform="translate(-12.82 -44.26)"/><line class="cls-2" x1="187.18" y1="1485.48" x2="187.18" y2="454.13"/></svg>